<?xml version="1.0" encoding="utf-8"?>
<!-- Generator: Adobe Illustrator 19.1.0, SVG Export Plug-In . SVG Version: 6.00 Build 0)  -->
<svg version="1.1" id="Episerver_Logo" xmlns="http://www.w3.org/2000/svg" xmlns:xlink="http://www.w3.org/1999/xlink" x="0px"
	 y="0px" viewBox="-324 583.8 141.7 58.2" style="enable-background:new -324 583.8 141.7 58.2;" xml:space="preserve">
<style type="text/css">
	.st0{fill:#FFFFFF;}
</style>
<title>Epi_white</title>
<g>
	<path class="st0" d="M-244.8,596.6c21.6,16.5,25,44.6,25,44.6l0,0v-56.1h-44C-256.3,585.1-246.3,586.3-244.8,596.6z"/>
	<polygon class="st0" points="-219.8,641.3 -219.8,641.3 -219.8,641.3 	"/>
	<polygon class="st0" points="-219.8,641.3 -219.8,641.3 -219.8,641.3 	"/>
	<path class="st0" d="M-240.3,636.8c-2.9-1.8-6.2-4.5-9.7-10.9c-2.3-4.1-5.1-9.5-6.4-11.9c4.7-2.2,11.7-6.9,11.7-14.8
		c0-0.9-0.1-1.8-0.2-2.6c-1.4-10.3-11.5-11.5-18.9-11.5c-0.1,0-0.3,0-0.4,0h-22.2v1.9l3.1,0.3c3.3,0.3,3.3,0.8,3.3,11.2V628
		c0,10.4,0,10.8-3.3,11.1l-3.1,0.3v1.9h20.6v-1.9l-3.1-0.3c-3.2-0.3-3.2-0.8-3.2-11.1v-11.2h3.2c1.8,0,3.9,0,5.3,1.1
		c1.1,0.9,3.1,4.2,5.3,8.3l3.4,6.5c2.6,4.7,6.5,8.5,12.1,8.5h6.6l16.5,0v0C-220.7,641.2-236.5,639.2-240.3,636.8z M-267.2,614.4
		h-4.9v-25.8c1.7-0.3,3.5-0.7,5.3-0.7c6.6,0,13.2,3.1,13.2,13C-253.6,610.6-260,614.4-267.2,614.4z"/>
	<rect x="-219.8" y="641.3" class="st0" width="0" height="0"/>
</g>
</svg>
